<svg preserveAspectRatio="none" overflow="visible" style="display: block;" width="15" height="15" viewBox="0 0 15 15" fill="none" xmlns="http://www.w3.org/2000/svg">
<g id="Frame 543">
<rect width="15" height="15" rx="7.5" fill="#ECECFF"/>
<path id="Vector" d="M9.64286 3C9.87019 3 10.0882 3.10536 10.2489 3.2929C10.4097 3.48044 10.5 3.7348 10.5 4.00002V11.5002C10.5 11.5877 10.4802 11.6737 10.4428 11.7496C10.4053 11.8255 10.3514 11.8885 10.2865 11.9325C10.2216 11.9764 10.1479 11.9997 10.0729 12C9.99783 12.0003 9.92403 11.9776 9.85886 11.9342L7.92514 10.6451C7.79566 10.5588 7.64912 10.5135 7.5 10.5135C7.35088 10.5135 7.20434 10.5588 7.07486 10.6451L5.14114 11.9342C5.07597 11.9776 5.00217 12.0003 4.92712 12C4.85207 11.9997 4.77841 11.9764 4.71349 11.9325C4.64857 11.8885 4.59469 11.8255 4.55722 11.7496C4.51976 11.6737 4.50002 11.5877 4.5 11.5002V4.00002C4.5 3.7348 4.59031 3.48044 4.75105 3.2929C4.9118 3.10536 5.12981 3 5.35714 3H9.64286Z" fill="#6E63FF" stroke="#6E63FF" stroke-linecap="round" stroke-linejoin="round"/>
</g>
</svg>
