<svg preserveAspectRatio="none" overflow="visible" style="display: block;" width="18" height="18" viewBox="0 0 18 18" fill="none" xmlns="http://www.w3.org/2000/svg">
<path id="Vector" fill-rule="evenodd" clip-rule="evenodd" d="M11.7692 6.33943e-08H8.02523C6.32862 6.33943e-08 4.98462 6.2377e-08 3.93323 0.128093C2.85138 0.260372 1.97538 0.538326 1.284 1.16456C0.593539 1.79163 0.287077 2.58614 0.141231 3.56735C1.78814e-07 4.52177 6.98963e-08 5.73991 6.98963e-08 7.2787V12.3488C-0.000165591 13.0969 0.294147 13.8204 0.829936 14.389C1.36572 14.9577 2.10778 15.3342 2.92246 15.4507C3.04892 16.0903 3.29354 16.6362 3.78277 17.0807C4.33846 17.5847 5.03815 17.8007 5.86892 17.9029C6.66923 18 7.68738 18 8.94923 18H11.82C13.0818 18 14.1 18 14.9003 17.9029C15.7311 17.8007 16.4308 17.5847 16.9865 17.0807C17.5422 16.5767 17.7803 15.9421 17.8929 15.1887C18 14.4628 18 13.5393 18 12.3949V8.11674C18 6.97228 18 6.04884 17.8929 5.32298C17.7803 4.56949 17.5422 3.93488 16.9865 3.43088C16.4963 2.98716 15.8945 2.7653 15.1892 2.6506C15.0608 1.91171 14.6457 1.23868 14.0187 0.752733C13.3917 0.266785 12.594 -0.000150187 11.7692 6.33943e-08ZM13.7354 2.52921C13.595 2.15749 13.33 1.83488 12.9775 1.60654C12.6249 1.37821 12.2024 1.25557 11.7692 1.25581H8.07692C6.31662 1.25581 5.06677 1.25749 4.11692 1.37302C3.18923 1.48605 2.65385 1.6987 2.26338 2.05284C1.87292 2.40698 1.63846 2.89256 1.51385 3.73395C1.38646 4.59544 1.38462 5.72902 1.38462 7.32558V12.3488C1.38435 12.7418 1.51956 13.1249 1.77132 13.4447C2.02307 13.7644 2.37877 14.0048 2.78862 14.1321C2.76923 13.6214 2.76923 13.0437 2.76923 12.3949V8.11674C2.76923 6.97228 2.76923 6.04884 2.87723 5.32298C2.988 4.56949 3.228 3.93488 3.78277 3.43088C4.33846 2.92688 5.03815 2.71088 5.86892 2.60958C6.66923 2.51163 7.68738 2.51163 8.94923 2.51163H11.82C12.5354 2.51163 13.1723 2.51163 13.7354 2.52921ZM4.76123 4.32C5.01692 4.08809 5.37508 3.9374 6.05354 3.85451C6.74954 3.76995 7.67446 3.76828 8.99908 3.76828H11.7683C13.0929 3.76828 14.0169 3.76995 14.7148 3.85451C15.3923 3.9374 15.7505 4.08893 16.0062 4.32C16.2618 4.55191 16.428 4.87674 16.5194 5.49209C16.6126 6.12335 16.6145 6.96223 16.6145 8.16363V12.3497C16.6145 13.5511 16.6126 14.3891 16.5194 15.022C16.428 15.6366 16.2609 15.9614 16.0062 16.1933C15.7505 16.4252 15.3923 16.5759 14.7138 16.6588C14.0169 16.7433 13.0929 16.745 11.7683 16.745H8.99908C7.67446 16.745 6.74954 16.7433 6.05262 16.6588C5.37508 16.5759 5.01692 16.4244 4.76123 16.1933C4.50554 15.9614 4.33938 15.6366 4.248 15.0212C4.15477 14.3891 4.15292 13.5511 4.15292 12.3497V8.16363C4.15292 6.96223 4.15477 6.12335 4.248 5.49126C4.33938 4.87674 4.50646 4.55191 4.76123 4.32Z" fill="black"/>
</svg>
